<svg xmlns="http://www.w3.org/2000/svg" viewBox="0 0 400 250" width="400" height="250" fill="none">
  <rect width="400" height="250" fill="#f8fafc" />
  <rect x="15" y="15" width="370" height="220" rx="6" fill="#ffffff" stroke="#e2e8f0" stroke-width="1.5" />
  
  <!-- Banner Header -->
  <rect x="30" y="30" width="340" height="65" rx="4" fill="#f0f9ff" stroke="#bae6fd" stroke-width="1" />
  <circle cx="65" cy="62" r="18" fill="#0284c7" fill-opacity="0.15" />
  <path d="M55 60 L65 52 L75 60 L65 68 Z" fill="#0284c7" />
  <rect x="95" y="48" width="140" height="12" rx="2" fill="#0f172a" />
  <rect x="95" y="66" width="90" height="8" rx="2" fill="#0284c7" />
  
  <!-- Memory Cards Grid -->
  <g transform="translate(30, 110)">
    <rect x="0" y="0" width="100" height="105" rx="4" fill="#f8fafc" stroke="#e2e8f0" stroke-width="1" />
    <circle cx="50" cy="40" r="18" fill="#e0f2fe" />
    <rect x="15" y="70" width="70" height="8" rx="2" fill="#0f172a" />
    <rect x="25" y="84" width="50" height="6" rx="2" fill="#94a3b8" />

    <rect x="120" y="0" width="100" height="105" rx="4" fill="#f8fafc" stroke="#0284c7" stroke-width="1" />
    <circle cx="170" cy="40" r="18" fill="#e0f2fe" />
    <rect x="135" y="70" width="70" height="8" rx="2" fill="#0f172a" />
    <rect x="145" y="84" width="50" height="6" rx="2" fill="#94a3b8" />

    <rect x="240" y="0" width="100" height="105" rx="4" fill="#f8fafc" stroke="#e2e8f0" stroke-width="1" />
    <circle cx="290" cy="40" r="18" fill="#e0f2fe" />
    <rect x="255" y="70" width="70" height="8" rx="2" fill="#0f172a" />
    <rect x="265" y="84" width="50" height="6" rx="2" fill="#94a3b8" />
  </g>
</svg>
